<svg data-v-423bf9ae="" xmlns="http://www.w3.org/2000/svg" viewBox="0 0 298 90" class="iconLeftSlogan"><!----><!----><!----><g data-v-423bf9ae="" id="0d848d11-5f95-414a-b694-c4e0cf072f56" fill="black" transform="matrix(4.608294768854844,0,0,4.608294768854844,78.37263319245697,0)"><path d="M10.54 2.38L6.49 11.53L2.47 2.38L1.28 2.38L1.28 12.88L2.40 12.88L2.40 4.59L6.02 12.88L6.95 12.88L10.61 4.62L10.61 12.88L11.71 12.88L11.71 2.38ZM17.41 13.02C19.04 13.02 20.41 11.97 20.88 10.50L19.72 10.50C19.30 11.36 18.43 11.94 17.41 11.94C16.00 11.94 14.86 10.82 14.86 9.38C14.86 7.95 16.00 6.83 17.41 6.83C18.43 6.83 19.30 7.40 19.72 8.26L20.88 8.26C20.41 6.79 19.04 5.74 17.41 5.74C15.40 5.74 13.77 7.37 13.77 9.38C13.77 11.39 15.40 13.02 17.41 13.02ZM25.76 13.02C27.77 13.02 29.40 11.39 29.40 9.38C29.40 7.37 27.77 5.74 25.76 5.74C23.75 5.74 22.12 7.37 22.12 9.38C22.12 11.39 23.75 13.02 25.76 13.02ZM25.76 11.94C24.34 11.94 23.21 10.80 23.21 9.38C23.21 7.96 24.34 6.83 25.76 6.83C27.16 6.83 28.32 7.96 28.32 9.38C28.32 10.80 27.16 11.94 25.76 11.94ZM37.17 0L37.17 6.79C36.51 6.14 35.61 5.74 34.62 5.74C32.60 5.74 30.98 7.37 30.98 9.38C30.98 11.39 32.60 13.02 34.62 13.02C35.61 13.02 36.51 12.62 37.17 11.97L37.17 12.88L38.26 12.88L38.26 0ZM34.62 11.94C33.20 11.94 32.06 10.80 32.06 9.38C32.06 7.96 33.20 6.83 34.62 6.83C36.02 6.83 37.17 7.96 37.17 9.38C37.17 10.80 36.02 11.94 34.62 11.94ZM47.60 9.31C47.55 7.30 45.96 5.74 43.96 5.74C41.95 5.74 40.32 7.37 40.32 9.38C40.32 11.39 41.95 13.02 43.96 13.02C45.62 13.02 47.01 11.92 47.46 10.41L46.31 10.41C45.92 11.32 45.01 11.94 43.96 11.94C42.58 11.94 41.48 10.89 41.41 9.54L47.58 9.54ZM43.96 6.83C45.08 6.83 46.03 7.54 46.36 8.56L41.55 8.56C41.90 7.54 42.84 6.83 43.96 6.83Z"></path></g><!----><g data-v-423bf9ae="" id="474fc0c5-c69b-4e2f-84f6-57a17a112966" transform="matrix(2.8125,0,0,2.8125,-12.426001459360123,0)" stroke="none" fill="black"><path d="M27.377 11.377L16 0 4.623 11.377 16 22.753l11.377-11.376zM16 6.026l5.35 5.35L16 16.727l-5.35-5.35L16 6.026zM27.426 14.969l-5.664 5.664V32h5.664zM10.238 20.633l-5.664-5.664V32h5.664z"></path></g><!----><g data-v-423bf9ae="" id="472e05de-6148-4c22-8754-c94a48649d56" fill="black" transform="matrix(1.0317501993667224,0,0,1.0317501993667224,83.59029621986858,56.96665581544612)"><path d="M0.66 9.98C0.66 12.74 2.73 14.22 4.94 14.22C6.78 14.22 8.50 13.52 9.67 12.25C9.73 12.19 9.76 12.15 9.76 12.10C9.76 12.04 9.66 11.82 9.51 11.82C9.44 11.82 9.31 11.94 9.30 11.96C8.12 13.05 6.89 13.73 4.98 13.73C3.01 13.73 1.22 12.33 1.22 10.07C1.22 7.01 3.75 4.80 6.59 4.80C8.54 4.80 9.97 5.74 9.97 7.88C9.97 8.69 9.60 9.51 9.03 10.08C8.19 10.92 7.18 11.38 6.43 11.38C6.19 11.38 6.19 11.23 6.19 10.99C6.19 10.54 7.36 7.90 7.73 7.11C7.76 7.04 7.77 6.96 7.77 6.90C7.77 6.72 7.56 6.68 7.38 6.68C7.17 6.68 7.10 6.75 6.96 6.92C6.86 7.04 6.82 7.10 6.79 7.11C6.76 7.11 6.55 7.03 6.36 7.03C4.33 7.03 2.81 9.72 2.81 10.65C2.81 11.26 3.08 11.86 3.67 11.86C4.33 11.86 5.00 11.26 5.25 11.00C5.22 11.16 5.19 11.40 5.19 11.54C5.19 11.80 5.47 11.89 5.73 11.89C7.80 11.89 10.47 10.50 10.47 7.78C10.47 5.24 8.55 4.33 6.55 4.33C3.63 4.33 0.66 6.76 0.66 9.98ZM3.84 10.54C3.84 9.03 5.33 7.41 5.99 7.41C6.19 7.41 6.40 7.53 6.40 7.70C6.40 8.08 5.29 11.14 4.38 11.14C4.05 11.14 3.84 10.85 3.84 10.54ZM18.58 12.39C18.58 12.63 18.61 12.68 18.80 12.68C19.04 12.68 19.54 12.64 19.96 12.64C20.38 12.64 20.87 12.68 21.20 12.68C21.36 12.68 21.39 12.61 21.39 12.40C21.39 12.24 21.36 12.18 21.20 12.18L20.23 12.18C20.17 12.18 20.16 11.54 20.16 10.79C20.16 8.96 20.20 6.13 20.27 4.28C20.30 3.88 20.33 3.91 20.47 4.27L23.73 12.32C23.83 12.54 23.90 12.74 24.01 12.74C24.11 12.74 24.18 12.63 24.26 12.45C24.60 11.79 24.78 11.75 25.05 11.09L27.64 4.47C27.76 4.16 27.80 4.02 27.82 4.47C27.85 5.66 27.89 8.47 27.89 9.74C27.89 10.99 27.85 12.18 27.79 12.18L27.16 12.18C26.94 12.18 26.87 12.19 26.87 12.39C26.87 12.63 26.89 12.68 27.09 12.68C27.29 12.68 27.99 12.64 28.59 12.64C29.01 12.64 29.76 12.68 30.09 12.68C30.25 12.68 30.28 12.61 30.28 12.40C30.28 12.22 30.23 12.18 30.06 12.18L29.33 12.18C29.22 12.18 29.12 8.44 29.12 6.03L29.12 4.77C29.12 4.17 29.15 3.77 29.19 3.70L29.85 3.70C30.07 3.70 30.11 3.68 30.11 3.49C30.11 3.25 30.10 3.19 29.90 3.19C29.58 3.19 28.90 3.23 28.48 3.23L27.80 3.23C27.58 3.23 27.55 3.29 27.44 3.58L24.70 10.72C24.61 10.95 24.58 11.02 24.47 10.74L21.53 3.40C21.46 3.22 21.41 3.19 21.27 3.19C21.18 3.19 20.69 3.23 20.38 3.23C19.88 3.23 19.03 3.19 18.83 3.19C18.69 3.19 18.69 3.26 18.69 3.47C18.69 3.64 18.69 3.70 18.83 3.70L19.53 3.70C19.80 3.70 19.80 3.72 19.80 3.84C19.80 4.82 19.59 9.94 19.54 10.79C19.50 11.55 19.50 12.18 19.45 12.18L18.87 12.18C18.65 12.18 18.58 12.19 18.58 12.39ZM38.04 12.39C38.04 12.63 38.04 12.68 38.23 12.68C38.40 12.68 38.72 12.64 39.30 12.64C39.91 12.64 40.46 12.68 40.61 12.68C40.78 12.68 40.78 12.61 40.78 12.40C40.78 12.24 40.78 12.18 40.61 12.18L39.54 12.18C39.54 12.18 39.52 12.18 39.52 12.17C39.54 11.87 40.31 9.90 40.66 9.02C40.73 8.83 40.74 8.79 40.95 8.79L43.78 8.79C43.92 8.79 43.92 8.81 43.99 9.03C44.25 9.77 44.97 11.89 44.97 12.17C44.97 12.18 44.95 12.18 44.95 12.18L44.18 12.18C43.96 12.18 43.95 12.19 43.95 12.39C43.95 12.63 43.96 12.68 44.13 12.68C44.45 12.68 45.32 12.64 45.74 12.64C46.16 12.64 46.83 12.68 47.04 12.68C47.18 12.68 47.19 12.61 47.19 12.40C47.19 12.24 47.18 12.18 47.04 12.18L46.55 12.18C46.45 12.18 45.43 9.34 44.87 7.78L43.19 3.07C43.18 3.00 43.11 2.94 43.02 2.94C42.90 2.94 42.80 3.16 42.71 3.35C42.56 3.71 42.32 3.84 42.21 4.13L40.73 7.57C40.54 8.01 38.84 12.18 38.71 12.18L38.29 12.18C38.07 12.18 38.04 12.19 38.04 12.39ZM40.94 8.33C40.94 8.30 40.96 8.23 41.01 8.13L42.38 4.77C42.42 4.66 42.45 4.61 42.48 4.61C42.49 4.61 42.50 4.63 42.55 4.77L43.71 8.18C43.74 8.25 43.75 8.29 43.75 8.32C43.75 8.36 43.72 8.37 43.62 8.37L41.12 8.37C40.94 8.37 40.94 8.34 40.94 8.33ZM54.95 12.39C54.95 12.63 54.95 12.68 55.15 12.68C55.47 12.68 56.41 12.64 56.83 12.64C57.25 12.64 58.07 12.68 58.39 12.68C58.56 12.68 58.56 12.61 58.56 12.40C58.56 12.24 58.56 12.18 58.39 12.18L57.47 12.18C57.39 12.18 57.34 9.93 57.34 8.20C57.34 8.01 57.34 8.01 57.47 8.01L62.71 8.01C62.78 8.01 62.79 8.01 62.79 8.18L62.79 9.91C62.79 11.05 62.78 12.18 62.72 12.18L61.95 12.18C61.73 12.18 61.68 12.19 61.68 12.39C61.68 12.63 61.70 12.68 61.89 12.68C62.22 12.68 63.06 12.64 63.48 12.64C63.90 12.64 64.48 12.68 64.81 12.68C64.97 12.68 64.99 12.61 64.99 12.40C64.99 12.24 64.97 12.18 64.81 12.18L64.06 12.18C64.02 12.18 64.01 9.27 64.01 7.04C64.01 5.40 64.01 3.70 64.05 3.70L64.67 3.70C64.89 3.70 64.93 3.68 64.93 3.49C64.93 3.25 64.92 3.19 64.72 3.19C64.58 3.19 63.95 3.23 63.36 3.23C62.69 3.23 62.09 3.19 61.87 3.19C61.67 3.19 61.64 3.22 61.64 3.44C61.64 3.67 61.71 3.70 61.88 3.70L62.68 3.70C62.73 3.70 62.79 4.79 62.79 5.71L62.79 7.42C62.79 7.59 62.79 7.59 62.62 7.59L57.51 7.59C57.34 7.59 57.34 7.59 57.34 7.38C57.34 6.96 57.33 6.23 57.33 5.53C57.33 4.66 57.34 3.70 57.40 3.70L58.17 3.70C58.39 3.70 58.44 3.68 58.44 3.49C58.44 3.25 58.42 3.19 58.23 3.19C57.90 3.19 57.32 3.23 56.71 3.23C56.13 3.23 55.64 3.19 55.41 3.19C55.23 3.19 55.13 3.21 55.13 3.44C55.13 3.68 55.24 3.70 55.41 3.70L56.03 3.70C56.08 3.70 56.10 5.59 56.10 7.18L56.10 8.61C56.10 10.08 56.08 12.18 56.01 12.18L55.20 12.18C54.98 12.18 54.95 12.19 54.95 12.39ZM72.88 12.39C72.88 12.63 72.88 12.68 73.08 12.68C73.25 12.68 73.57 12.64 74.14 12.64C74.76 12.64 75.31 12.68 75.46 12.68C75.63 12.68 75.63 12.61 75.63 12.40C75.63 12.24 75.63 12.18 75.46 12.18L74.38 12.18C74.38 12.18 74.37 12.18 74.37 12.17C74.38 11.87 75.15 9.90 75.50 9.02C75.57 8.83 75.59 8.79 75.80 8.79L78.62 8.79C78.76 8.79 78.76 8.81 78.83 9.03C79.10 9.77 79.81 11.89 79.81 12.17C79.81 12.18 79.80 12.18 79.80 12.18L79.03 12.18C78.81 12.18 78.79 12.19 78.79 12.39C78.79 12.63 78.81 12.68 78.97 12.68C79.30 12.68 80.16 12.64 80.58 12.64C81.00 12.64 81.68 12.68 81.89 12.68C82.03 12.68 82.04 12.61 82.04 12.40C82.04 12.24 82.03 12.18 81.89 12.18L81.40 12.18C81.30 12.18 80.28 9.34 79.72 7.78L78.04 3.07C78.02 3.00 77.95 2.94 77.87 2.94C77.74 2.94 77.64 3.16 77.56 3.35C77.41 3.71 77.17 3.84 77.06 4.13L75.57 7.57C75.39 8.01 73.68 12.18 73.56 12.18L73.14 12.18C72.91 12.18 72.88 12.19 72.88 12.39ZM75.78 8.33C75.78 8.30 75.81 8.23 75.85 8.13L77.22 4.77C77.27 4.66 77.29 4.61 77.32 4.61C77.34 4.61 77.35 4.63 77.39 4.77L78.55 8.18C78.58 8.25 78.60 8.29 78.60 8.32C78.60 8.36 78.57 8.37 78.47 8.37L75.96 8.37C75.78 8.37 75.78 8.34 75.78 8.33ZM88.12 3.51C88.12 3.75 88.21 3.77 88.38 3.77L88.82 3.77C88.90 3.77 91.69 10.99 91.73 11.07C92.22 12.18 92.32 12.99 92.53 12.99C92.79 12.99 92.85 12.67 93.13 12.26C93.28 12.04 93.37 12.01 93.52 11.66L96.75 4.06C96.87 3.81 96.85 3.77 97.22 3.77C97.44 3.77 97.51 3.75 97.51 3.56C97.51 3.32 97.47 3.26 97.27 3.26C97.13 3.26 96.60 3.30 96.18 3.30C95.76 3.30 94.93 3.26 94.71 3.26C94.51 3.26 94.46 3.29 94.46 3.51C94.46 3.75 94.58 3.77 94.75 3.77L95.75 3.77C95.82 3.77 95.83 3.81 95.83 3.95C95.83 4.63 94.15 8.72 93.42 10.63C93.28 10.99 93.20 11.17 93.16 11.17C93.11 11.17 93.02 10.98 92.88 10.60C92.30 9.10 91.17 6.01 90.65 4.49C90.57 4.27 90.48 3.93 90.48 3.79L90.48 3.77L91.46 3.77C91.69 3.77 91.76 3.75 91.76 3.56C91.76 3.32 91.71 3.26 91.52 3.26C91.20 3.26 90.12 3.30 89.70 3.30C89.28 3.30 88.56 3.26 88.38 3.26C88.20 3.26 88.12 3.28 88.12 3.51ZM104.99 12.39C104.99 12.63 105.03 12.68 105.22 12.68C105.55 12.68 106.30 12.64 107.02 12.64C107.67 12.64 108.47 12.68 108.70 12.68C108.86 12.68 108.89 12.61 108.89 12.40C108.89 12.24 108.86 12.18 108.70 12.18L107.73 12.18C107.63 12.18 107.60 9.55 107.60 7.76L107.60 5.87C107.60 5.14 107.63 3.70 107.73 3.70L108.64 3.70C108.86 3.70 108.89 3.68 108.89 3.49C108.89 3.25 108.86 3.19 108.70 3.19C108.37 3.19 107.70 3.23 107.04 3.23C106.23 3.23 105.52 3.19 105.29 3.19C105.11 3.19 105.04 3.21 105.04 3.44C105.04 3.68 105.13 3.70 105.29 3.70L106.22 3.70C106.26 3.70 106.33 4.79 106.33 5.71L106.33 7.08C106.33 8.92 106.32 12.18 106.20 12.18L105.28 12.18C105.06 12.18 104.99 12.19 104.99 12.39ZM116.79 3.51C116.79 3.72 116.86 3.79 117.05 3.79L117.87 3.77C117.96 3.77 118.01 6.61 118.01 8.55L118.01 10.42C118.01 11.30 117.99 12.18 117.95 12.18L117.35 12.18C117.12 12.18 117.05 12.19 117.05 12.39C117.05 12.63 117.10 12.68 117.29 12.68C117.42 12.68 118.24 12.64 118.66 12.64C119.08 12.64 119.85 12.68 120.18 12.68C120.34 12.68 120.37 12.61 120.37 12.40C120.37 12.24 120.34 12.18 120.18 12.18L119.36 12.18C119.29 12.18 119.21 9.18 119.21 8.37C119.21 8.30 119.21 8.26 119.32 8.26C119.71 8.26 120.32 8.27 120.61 8.27C122.85 8.32 122.99 10.00 122.99 11.68L122.99 12.49C122.99 12.61 123.05 12.64 123.14 12.64C123.14 12.64 124.59 12.68 125.06 12.68C125.23 12.68 125.29 12.64 125.29 12.53C125.29 12.24 125.23 12.18 125.08 12.18L124.43 12.18C124.33 12.18 124.31 12.14 124.28 11.31C124.19 8.99 122.82 8.34 121.91 8.05C121.77 8.01 121.80 8.01 121.91 7.95C122.50 7.69 123.82 6.94 123.82 5.63C123.82 3.63 122.12 3.21 120.72 3.21C120.40 3.21 119.11 3.29 118.69 3.29C118.27 3.29 117.29 3.26 117.07 3.26C116.89 3.26 116.79 3.28 116.79 3.51ZM119.21 7.80L119.21 4.40C119.21 4.05 119.24 3.68 119.28 3.68C119.49 3.65 119.77 3.65 119.99 3.65C121.30 3.65 122.54 4.47 122.54 5.82C122.54 6.99 122.00 7.57 121.34 7.88C121.30 7.90 121.25 7.90 121.18 7.90C120.71 7.88 119.99 7.88 119.39 7.87C119.22 7.87 119.21 7.85 119.21 7.80ZM133.38 8.72C133.38 8.85 133.48 8.88 133.63 8.88C133.70 8.88 133.80 8.88 133.81 8.76L133.90 8.09C133.91 7.98 134.69 7.95 135.09 7.95L137.87 7.95C138.12 7.95 138.08 7.97 137.96 8.19C137.05 9.77 133.91 15.15 133.91 15.25C133.91 15.47 134.30 15.68 134.46 15.68C134.61 15.68 137.13 10.56 138.84 7.38C138.87 7.32 138.89 7.28 138.89 7.22C138.89 7.08 138.74 7.06 138.61 7.06L136.29 7.06C135.59 7.06 134.04 7.06 134.04 7.00L134.04 6.93C134.04 6.76 134.02 6.71 133.81 6.71C133.59 6.71 133.57 6.73 133.55 7.00C133.46 7.90 133.38 8.68 133.38 8.72ZM146.76 12.49C146.76 12.64 146.96 12.64 147.06 12.64L150.29 12.64C150.46 12.64 150.47 12.67 150.47 12.81L150.47 15.41C150.47 15.55 150.56 15.64 150.67 15.64L151.30 15.58C151.48 15.57 151.56 15.51 151.56 15.39C151.56 15.32 151.48 13.65 151.44 12.80C151.42 12.64 151.48 12.64 151.59 12.64L152.36 12.64C152.53 12.64 152.53 12.64 152.53 12.50L152.53 11.94C152.53 11.80 152.49 11.80 152.39 11.80L151.58 11.80C151.41 11.80 151.41 11.80 151.41 11.59L151.41 7.45C151.41 7.18 151.34 7.04 151.19 7.04C150.96 7.04 149.93 8.27 149.81 8.40L147.95 10.64C147.62 11.03 146.76 12.10 146.76 12.49ZM147.81 11.44L150.25 8.50C150.43 8.29 150.47 8.20 150.47 8.54L150.47 11.56C150.47 11.79 150.47 11.80 150.25 11.80L147.90 11.80C147.49 11.80 147.62 11.68 147.81 11.44ZM161.60 10.39C161.60 10.54 161.70 10.60 161.85 10.60C163.30 10.60 164.53 11.14 164.53 12.56C164.53 14.25 162.74 15.02 161.81 15.20C161.70 15.22 161.67 15.26 161.67 15.44C161.67 15.67 161.70 15.74 161.83 15.74C162.34 15.74 165.61 14.80 165.61 12.33C165.61 10.46 164.16 9.86 162.39 9.69C162.30 9.67 162.27 9.69 162.27 9.63C162.27 9.55 162.46 8.64 162.55 8.15C162.57 8.06 162.60 8.04 162.74 8.04C163.86 8.09 164.46 8.18 165.55 8.18C165.75 8.18 166.10 8.16 166.11 7.90C166.12 7.52 166.14 7.34 166.17 6.93C166.17 6.80 166.01 6.80 165.94 6.80L165.89 6.80C165.82 6.80 165.73 7.14 165.70 7.17C165.68 7.20 165.56 7.21 165.41 7.21C164.53 7.21 162.55 7.08 162.44 7.08C162.37 7.08 162.29 7.07 162.26 7.20C162.05 8.32 161.60 10.18 161.60 10.39Z"></path></g></svg>