<svg data-v-423bf9ae="" xmlns="http://www.w3.org/2000/svg" viewBox="0 0 213.4562122870164 60" class="font"><!----><!----><!----><g data-v-423bf9ae="" id="7280921b-0bb3-4dee-bf1c-acd038fa8416" fill="black" transform="matrix(4.608294768854844,0,0,4.608294768854844,-5.898614671312558,0)"><path d="M10.54 2.38L6.49 11.53L2.47 2.38L1.28 2.38L1.28 12.88L2.40 12.88L2.40 4.59L6.02 12.88L6.95 12.88L10.61 4.62L10.61 12.88L11.71 12.88L11.71 2.38ZM17.41 13.02C19.04 13.02 20.41 11.97 20.88 10.50L19.72 10.50C19.30 11.36 18.43 11.94 17.41 11.94C16.00 11.94 14.86 10.82 14.86 9.38C14.86 7.95 16.00 6.83 17.41 6.83C18.43 6.83 19.30 7.40 19.72 8.26L20.88 8.26C20.41 6.79 19.04 5.74 17.41 5.74C15.40 5.74 13.77 7.37 13.77 9.38C13.77 11.39 15.40 13.02 17.41 13.02ZM25.76 13.02C27.77 13.02 29.40 11.39 29.40 9.38C29.40 7.37 27.77 5.74 25.76 5.74C23.75 5.74 22.12 7.37 22.12 9.38C22.12 11.39 23.75 13.02 25.76 13.02ZM25.76 11.94C24.34 11.94 23.21 10.80 23.21 9.38C23.21 7.96 24.34 6.83 25.76 6.83C27.16 6.83 28.32 7.96 28.32 9.38C28.32 10.80 27.16 11.94 25.76 11.94ZM37.17 0L37.17 6.79C36.51 6.14 35.61 5.74 34.62 5.74C32.60 5.74 30.98 7.37 30.98 9.38C30.98 11.39 32.60 13.02 34.62 13.02C35.61 13.02 36.51 12.62 37.17 11.97L37.17 12.88L38.26 12.88L38.26 0ZM34.62 11.94C33.20 11.94 32.06 10.80 32.06 9.38C32.06 7.96 33.20 6.83 34.62 6.83C36.02 6.83 37.17 7.96 37.17 9.38C37.17 10.80 36.02 11.94 34.62 11.94ZM47.60 9.31C47.55 7.30 45.96 5.74 43.96 5.74C41.95 5.74 40.32 7.37 40.32 9.38C40.32 11.39 41.95 13.02 43.96 13.02C45.62 13.02 47.01 11.92 47.46 10.41L46.31 10.41C45.92 11.32 45.01 11.94 43.96 11.94C42.58 11.94 41.48 10.89 41.41 9.54L47.58 9.54ZM43.96 6.83C45.08 6.83 46.03 7.54 46.36 8.56L41.55 8.56C41.90 7.54 42.84 6.83 43.96 6.83Z"></path></g><!----><!----></svg>